<svg xmlns="http://www.w3.org/2000/svg" xmlns:xlink="http://www.w3.org/1999/xlink" width="250" zoomAndPan="magnify" viewBox="0 0 187.5 187.499992" height="250" preserveAspectRatio="xMidYMid meet" version="1.0"><defs><g/><clipPath id="dd0bdd07ea"><path d="M 93 83 L 98 83 L 98 85.917969 L 93 85.917969 Z M 93 83 " clip-rule="nonzero"/></clipPath><clipPath id="0b1a265627"><path d="M 77.375 67.226562 L 109.539062 67.226562 L 109.539062 85.917969 L 77.375 85.917969 Z M 77.375 67.226562 " clip-rule="nonzero"/></clipPath></defs><g fill="#666666" fill-opacity="1"><g transform="translate(60.143728, 106.606667)"><g><path d="M 6.28125 0 L 1.234375 0 L 1.265625 -0.203125 L 1.515625 -0.203125 C 1.867188 -0.203125 2.171875 -0.328125 2.421875 -0.578125 C 2.679688 -0.828125 2.816406 -1.128906 2.828125 -1.484375 L 2.828125 -12.96875 C 2.828125 -13.332031 2.695312 -13.632812 2.4375 -13.875 C 2.175781 -14.125 1.867188 -14.25 1.515625 -14.25 L 1.265625 -14.25 L 1.234375 -14.453125 L 5.34375 -14.453125 C 6.769531 -14.453125 7.875 -14.140625 8.65625 -13.515625 C 9.4375 -12.890625 9.828125 -12.054688 9.828125 -11.015625 C 9.828125 -10.179688 9.609375 -9.492188 9.171875 -8.953125 C 8.734375 -8.410156 8.195312 -8.050781 7.5625 -7.875 C 8.644531 -7.707031 9.503906 -7.257812 10.140625 -6.53125 C 10.773438 -5.800781 11.09375 -4.878906 11.09375 -3.765625 C 11.09375 -2.660156 10.664062 -1.753906 9.8125 -1.046875 C 8.96875 -0.347656 7.789062 0 6.28125 0 Z M 4.171875 -0.75 L 6.203125 -0.75 C 6.210938 -0.75 6.222656 -0.75 6.234375 -0.75 C 7.285156 -0.75 8.097656 -1.03125 8.671875 -1.59375 C 9.253906 -2.164062 9.546875 -2.976562 9.546875 -4.03125 C 9.546875 -4.625 9.441406 -5.144531 9.234375 -5.59375 C 9.035156 -6.039062 8.785156 -6.394531 8.484375 -6.65625 C 7.691406 -7.3125 6.492188 -7.640625 4.890625 -7.640625 C 4.890625 -7.640625 4.882812 -7.640625 4.875 -7.640625 L 4.875 -7.828125 C 4.882812 -7.828125 4.945312 -7.828125 5.0625 -7.828125 C 5.1875 -7.828125 5.359375 -7.835938 5.578125 -7.859375 C 5.796875 -7.890625 6.039062 -7.941406 6.3125 -8.015625 C 6.59375 -8.085938 6.84375 -8.195312 7.0625 -8.34375 C 7.28125 -8.5 7.488281 -8.675781 7.6875 -8.875 C 8.082031 -9.332031 8.28125 -10.007812 8.28125 -10.90625 C 8.28125 -11.8125 8.019531 -12.519531 7.5 -13.03125 C 6.988281 -13.539062 6.242188 -13.796875 5.265625 -13.796875 L 4.171875 -13.796875 Z M 4.171875 -0.75 "/></g></g></g><g fill="#666666" fill-opacity="1"><g transform="translate(72.252611, 106.606667)"><g><path d="M 13.734375 -12.1875 L 13.421875 -12.1875 C 13.054688 -12.1875 12.773438 -12.039062 12.578125 -11.75 C 12.492188 -11.625 12.445312 -11.476562 12.4375 -11.3125 L 12.4375 -4.359375 C 12.4375 -2.921875 11.976562 -1.785156 11.0625 -0.953125 C 10.144531 -0.117188 8.882812 0.296875 7.28125 0.296875 C 5.6875 0.296875 4.425781 -0.113281 3.5 -0.9375 C 2.582031 -1.769531 2.125 -2.90625 2.125 -4.34375 L 2.125 -11.296875 C 2.125 -11.546875 2.023438 -11.753906 1.828125 -11.921875 C 1.640625 -12.097656 1.410156 -12.1875 1.140625 -12.1875 L 0.828125 -12.1875 L 0.828125 -12.390625 L 4.75 -12.390625 L 4.75 -12.1875 L 4.4375 -12.1875 C 4.164062 -12.1875 3.929688 -12.097656 3.734375 -11.921875 C 3.546875 -11.753906 3.453125 -11.546875 3.453125 -11.296875 L 3.453125 -4.578125 C 3.453125 -3.242188 3.789062 -2.191406 4.46875 -1.421875 C 5.15625 -0.648438 6.117188 -0.265625 7.359375 -0.265625 C 8.609375 -0.265625 9.609375 -0.628906 10.359375 -1.359375 C 11.109375 -2.085938 11.484375 -3.085938 11.484375 -4.359375 L 11.484375 -11.296875 C 11.472656 -11.554688 11.375 -11.769531 11.1875 -11.9375 C 11 -12.101562 10.769531 -12.1875 10.5 -12.1875 L 10.1875 -12.1875 L 10.1875 -12.390625 L 13.734375 -12.390625 Z M 13.734375 -12.1875 "/></g></g></g><g fill="#666666" fill-opacity="1"><g transform="translate(86.717146, 106.606667)"><g><path d="M 1.421875 -0.203125 C 1.753906 -0.203125 2.035156 -0.304688 2.265625 -0.515625 C 2.492188 -0.734375 2.613281 -0.992188 2.625 -1.296875 L 2.625 -11.078125 C 2.613281 -11.378906 2.484375 -11.640625 2.234375 -11.859375 C 1.992188 -12.078125 1.710938 -12.1875 1.390625 -12.1875 L 1.140625 -12.1875 L 1.140625 -12.390625 L 5.40625 -12.390625 L 5.40625 -12.1875 L 5.171875 -12.1875 C 4.835938 -12.1875 4.550781 -12.078125 4.3125 -11.859375 C 4.070312 -11.640625 3.953125 -11.378906 3.953125 -11.078125 L 3.953125 -0.640625 L 7.171875 -0.640625 C 7.804688 -0.640625 8.34375 -0.75 8.78125 -0.96875 C 9.21875 -1.1875 9.550781 -1.445312 9.78125 -1.75 C 10.007812 -2.050781 10.234375 -2.453125 10.453125 -2.953125 L 10.65625 -2.953125 L 9.515625 0 L 1.140625 0 L 1.140625 -0.203125 Z M 1.421875 -0.203125 "/></g></g></g><g fill="#666666" fill-opacity="1"><g transform="translate(97.792848, 106.606667)"><g><path d="M 4.5 -11.859375 C 5.5625 -12.410156 6.726562 -12.6875 8 -12.6875 C 9.28125 -12.6875 10.445312 -12.410156 11.5 -11.859375 C 12.5625 -11.316406 13.40625 -10.550781 14.03125 -9.5625 C 14.65625 -8.570312 14.96875 -7.445312 14.96875 -6.1875 C 14.96875 -4.9375 14.65625 -3.816406 14.03125 -2.828125 C 13.40625 -1.835938 12.5625 -1.066406 11.5 -0.515625 C 10.445312 0.0234375 9.359375 0.296875 8.234375 0.296875 C 7.117188 0.296875 6.132812 0.140625 5.28125 -0.171875 C 4.425781 -0.492188 3.6875 -0.9375 3.0625 -1.5 C 2.4375 -2.070312 1.941406 -2.765625 1.578125 -3.578125 C 1.210938 -4.390625 1.03125 -5.34375 1.03125 -6.4375 C 1.03125 -7.53125 1.34375 -8.570312 1.96875 -9.5625 C 2.59375 -10.550781 3.4375 -11.316406 4.5 -11.859375 Z M 4.125 -1.96875 C 5.164062 -0.875 6.457031 -0.328125 8 -0.328125 C 9.539062 -0.328125 10.832031 -0.875 11.875 -1.96875 C 12.925781 -3.0625 13.453125 -4.46875 13.453125 -6.1875 C 13.453125 -7.914062 12.925781 -9.328125 11.875 -10.421875 C 10.832031 -11.515625 9.539062 -12.0625 8 -12.0625 C 6.457031 -12.0625 5.164062 -11.515625 4.125 -10.421875 C 3.082031 -9.328125 2.5625 -7.914062 2.5625 -6.1875 C 2.5625 -4.46875 3.082031 -3.0625 4.125 -1.96875 Z M 4.125 -1.96875 "/></g></g></g><g fill="#666666" fill-opacity="1"><g transform="translate(113.786488, 106.606667)"><g><path d="M 13.328125 -12.1875 L 13.078125 -12.1875 C 12.703125 -12.1875 12.34375 -12.085938 12 -11.890625 C 11.664062 -11.691406 11.390625 -11.441406 11.171875 -11.140625 L 7.203125 -5.125 L 7.203125 -1.328125 C 7.203125 -1.023438 7.316406 -0.757812 7.546875 -0.53125 C 7.785156 -0.3125 8.070312 -0.203125 8.40625 -0.203125 L 8.65625 -0.203125 L 8.65625 0 L 4.421875 0 L 4.421875 -0.203125 L 4.671875 -0.203125 C 5.003906 -0.203125 5.285156 -0.3125 5.515625 -0.53125 C 5.742188 -0.757812 5.859375 -1.023438 5.859375 -1.328125 L 5.859375 -5.140625 L 2.046875 -11.15625 C 1.578125 -11.84375 0.941406 -12.1875 0.140625 -12.1875 L -0.109375 -12.1875 L -0.109375 -12.390625 L 4.6875 -12.390625 L 4.6875 -12.1875 L 4.4375 -12.1875 C 4.175781 -12.1875 3.988281 -12.101562 3.875 -11.9375 C 3.757812 -11.769531 3.703125 -11.628906 3.703125 -11.515625 C 3.703125 -11.398438 3.710938 -11.296875 3.734375 -11.203125 L 6.75 -5.84375 L 9.953125 -11.171875 C 9.992188 -11.285156 10.015625 -11.398438 10.015625 -11.515625 C 10.015625 -11.628906 9.957031 -11.769531 9.84375 -11.9375 C 9.726562 -12.101562 9.53125 -12.1875 9.25 -12.1875 L 9 -12.1875 L 9 -12.390625 L 13.328125 -12.390625 Z M 13.328125 -12.1875 "/></g></g></g><path fill="#ffffff" d="M 95.460938 82.882812 C 95.699219 82.511719 95.96875 82.152344 96.175781 81.765625 C 96.660156 80.851562 96.628906 79.90625 96.1875 78.992188 C 95.882812 78.351562 95.507812 77.742188 95.136719 77.136719 C 94.609375 76.289062 94.054688 75.453125 93.730469 74.5 C 93.558594 74 93.457031 73.476562 93.332031 73.011719 C 93.304688 74.460938 92.59375 75.699219 91.84375 76.9375 C 91.386719 77.695312 90.917969 78.457031 90.558594 79.261719 C 90.054688 80.375 90.304688 81.417969 91.054688 82.351562 C 91.183594 82.511719 91.316406 82.664062 91.496094 82.878906 C 91.074219 82.726562 90.773438 82.507812 90.507812 82.238281 C 89.6875 81.394531 89.433594 80.355469 89.519531 79.214844 C 89.617188 77.875 90.128906 76.679688 90.890625 75.585938 C 91.695312 74.4375 92.527344 73.3125 93.347656 72.171875 C 93.355469 72.164062 93.375 72.152344 93.332031 72.175781 C 94.097656 73.144531 94.847656 74.113281 95.617188 75.066406 C 96.457031 76.105469 97.066406 77.242188 97.253906 78.582031 C 97.4375 79.90625 97.222656 81.132812 96.316406 82.171875 C 96.074219 82.453125 95.765625 82.671875 95.484375 82.925781 C 95.484375 82.910156 95.472656 82.898438 95.460938 82.882812 Z M 95.460938 82.882812 " fill-opacity="1" fill-rule="nonzero"/><path fill="#ffffff" d="M 94.359375 83.300781 C 94.878906 82.253906 94.746094 81.183594 94.4375 80.132812 C 94.175781 79.234375 93.828125 78.363281 93.519531 77.484375 C 93.5 77.425781 93.464844 77.375 93.4375 77.320312 C 93.414062 77.328125 93.390625 77.328125 93.390625 77.335938 C 92.945312 78.40625 92.507812 79.476562 92.273438 80.617188 C 92.089844 81.527344 92.113281 82.414062 92.554688 83.257812 C 92.570312 83.285156 92.570312 83.316406 92.589844 83.394531 C 91.558594 82.652344 90.78125 81.828125 90.902344 80.484375 C 90.953125 79.921875 91.148438 79.398438 91.441406 78.917969 C 91.84375 78.257812 92.304688 77.628906 92.699219 76.960938 C 92.933594 76.570312 93.09375 76.132812 93.292969 75.722656 C 93.328125 75.65625 93.386719 75.605469 93.433594 75.546875 C 93.480469 75.597656 93.558594 75.632812 93.566406 75.691406 C 93.722656 76.539062 94.296875 77.15625 94.761719 77.828125 C 95.144531 78.382812 95.527344 78.933594 95.753906 79.578125 C 96.0625 80.4375 95.96875 81.25 95.507812 82.023438 C 95.210938 82.519531 94.824219 82.949219 94.359375 83.300781 Z M 94.359375 83.300781 " fill-opacity="1" fill-rule="nonzero"/><path fill="#ffffff" d="M 88.417969 78.90625 C 87.851562 78.328125 87.496094 77.621094 87.171875 76.863281 C 87.234375 76.863281 87.273438 76.863281 87.304688 76.863281 C 87.339844 76.863281 87.367188 76.863281 87.355469 76.863281 C 87.355469 76.320312 87.347656 75.78125 87.355469 75.246094 C 87.390625 73.941406 87.800781 72.742188 88.40625 71.597656 C 88.644531 71.152344 88.835938 70.683594 89.058594 70.210938 C 89.089844 70.246094 89.144531 70.296875 89.199219 70.359375 C 89.609375 70.847656 90.046875 71.308594 90.410156 71.828125 C 90.6875 72.222656 90.890625 72.683594 91.078125 73.136719 C 91.242188 73.546875 90.992188 73.859375 90.707031 74.113281 C 90.105469 74.652344 89.570312 75.242188 89.1875 75.957031 C 88.734375 76.808594 88.511719 77.714844 88.472656 78.671875 C 88.46875 78.742188 88.472656 78.816406 88.472656 78.886719 C 88.453125 78.890625 88.433594 78.894531 88.417969 78.90625 Z M 88.714844 71.980469 C 88.6875 71.976562 88.65625 71.976562 88.625 71.972656 C 88.492188 72.664062 88.363281 73.351562 88.230469 74.050781 C 88.1875 74.046875 88.121094 74.035156 88.042969 74.023438 C 87.996094 74.855469 87.945312 75.6875 88.132812 76.496094 C 88.1875 76.726562 88.300781 76.945312 88.386719 77.167969 C 88.410156 77.164062 88.433594 77.160156 88.460938 77.15625 C 88.699219 76.175781 89.070312 75.273438 89.847656 74.578125 C 89.652344 74.117188 89.464844 73.664062 89.273438 73.210938 C 89.183594 73.25 89.117188 73.277344 89.03125 73.3125 C 88.921875 72.855469 88.816406 72.417969 88.714844 71.980469 Z M 88.714844 71.980469 " fill-opacity="1" fill-rule="nonzero"/><path fill="#ffffff" d="M 97.71875 70.191406 C 98.121094 70.976562 98.546875 71.726562 98.894531 72.515625 C 99.4375 73.742188 99.507812 75.046875 99.414062 76.367188 C 99.402344 76.527344 99.390625 76.683594 99.375 76.855469 C 99.460938 76.855469 99.527344 76.855469 99.625 76.855469 C 99.394531 77.664062 98.914062 78.308594 98.4375 79.011719 C 98.367188 78.589844 98.316406 78.21875 98.25 77.847656 C 97.972656 76.335938 97.261719 75.066406 96.097656 74.058594 C 95.609375 73.636719 95.613281 73.492188 95.875 72.910156 C 96.335938 71.886719 97.09375 71.085938 97.71875 70.191406 Z M 97.0625 74.660156 C 97.941406 75.273438 98.195312 76.226562 98.488281 77.179688 C 98.589844 77.035156 98.675781 76.898438 98.71875 76.746094 C 98.96875 75.90625 98.882812 75.046875 98.847656 74.1875 C 98.847656 74.152344 98.804688 74.089844 98.777344 74.089844 C 98.613281 74.09375 98.640625 73.964844 98.625 73.875 C 98.601562 73.726562 98.597656 73.574219 98.570312 73.425781 C 98.464844 72.964844 98.351562 72.5 98.238281 72.035156 C 98.214844 72.039062 98.1875 72.039062 98.164062 72.042969 C 98.078125 72.472656 97.992188 72.90625 97.902344 73.355469 C 97.796875 73.28125 97.730469 73.238281 97.644531 73.183594 C 97.449219 73.6875 97.257812 74.167969 97.0625 74.660156 Z M 97.0625 74.660156 " fill-opacity="1" fill-rule="nonzero"/><path fill="#ffffff" d="M 105.390625 77.589844 C 105.308594 77.871094 105.25 78.113281 105.167969 78.347656 C 104.453125 80.421875 102.964844 81.675781 100.914062 82.308594 C 99.613281 82.714844 98.273438 82.804688 96.917969 82.71875 C 96.84375 82.714844 96.765625 82.703125 96.65625 82.691406 C 96.898438 82.433594 97.179688 82.339844 97.492188 82.304688 C 98.070312 82.242188 98.636719 82.152344 99.171875 81.894531 C 99.847656 81.570312 100.441406 81.128906 100.992188 80.628906 C 101.535156 80.132812 102.050781 79.605469 102.578125 79.097656 C 103.363281 78.347656 104.320312 77.921875 105.390625 77.589844 Z M 99.683594 81.773438 C 99.699219 81.796875 99.707031 81.820312 99.722656 81.839844 C 101.179688 82.113281 103.644531 80.46875 103.707031 79.132812 C 102.351562 80.027344 101.019531 80.898438 99.683594 81.773438 Z M 99.683594 81.773438 " fill-opacity="1" fill-rule="nonzero"/><path fill="#ffffff" d="M 90.148438 82.691406 C 88.464844 82.773438 86.878906 82.644531 85.351562 82.082031 C 84.578125 81.800781 83.867188 81.398438 83.261719 80.835938 C 82.332031 79.972656 81.777344 78.90625 81.511719 77.578125 C 82.007812 77.773438 82.460938 77.917969 82.875 78.125 C 83.710938 78.539062 84.371094 79.183594 85.023438 79.832031 C 85.507812 80.304688 85.984375 80.78125 86.496094 81.21875 C 87.257812 81.875 88.183594 82.171875 89.164062 82.308594 C 89.492188 82.351562 89.816406 82.445312 90.148438 82.691406 Z M 83.132812 79.035156 C 83.484375 80.628906 85.84375 82.253906 87.070312 81.824219 C 86.804688 81.609375 86.511719 81.378906 86.226562 81.148438 C 85.871094 80.847656 85.554688 80.472656 85.152344 80.253906 C 84.460938 79.882812 83.746094 79.574219 83.132812 79.035156 Z M 83.132812 79.035156 " fill-opacity="1" fill-rule="nonzero"/><path fill="#ffffff" d="M 101.574219 71.527344 C 101.808594 72.511719 101.914062 73.46875 101.871094 74.441406 C 101.808594 75.902344 101.425781 77.261719 100.582031 78.464844 C 100.015625 79.277344 99.328125 79.953125 98.355469 80.273438 C 98.320312 80.285156 98.28125 80.292969 98.210938 80.316406 C 98.34375 79.96875 98.539062 79.703125 98.8125 79.519531 C 99.726562 78.917969 100.128906 78.003906 100.386719 77.003906 C 100.695312 75.792969 100.644531 74.574219 100.277344 73.382812 C 100.195312 73.117188 100.230469 72.910156 100.363281 72.691406 C 100.65625 72.207031 101.082031 71.855469 101.574219 71.527344 Z M 100.4375 77.628906 C 100.757812 77.441406 100.972656 77.160156 101.136719 76.839844 C 101.554688 76.03125 101.628906 75.144531 101.65625 74.25 C 101.667969 73.832031 101.65625 73.417969 101.65625 72.945312 C 101.355469 73.433594 101.085938 73.855469 100.84375 74.289062 C 100.773438 74.414062 100.753906 74.578125 100.75 74.734375 C 100.742188 75.246094 100.804688 75.761719 100.753906 76.273438 C 100.714844 76.722656 100.554688 77.160156 100.4375 77.628906 Z M 100.4375 77.628906 " fill-opacity="1" fill-rule="nonzero"/><path fill="#ffffff" d="M 88.5625 80.179688 C 88.195312 80.175781 87.878906 80.019531 87.582031 79.824219 C 86.722656 79.253906 86.136719 78.453125 85.710938 77.53125 C 84.84375 75.644531 84.800781 73.683594 85.230469 71.683594 C 85.234375 71.65625 85.253906 71.628906 85.277344 71.574219 C 85.800781 71.914062 86.261719 72.300781 86.546875 72.859375 C 86.628906 73.015625 86.628906 73.179688 86.570312 73.359375 C 85.984375 75.210938 86.207031 76.984375 87.15625 78.65625 C 87.367188 79.03125 87.753906 79.300781 88.0625 79.617188 C 88.234375 79.792969 88.425781 79.949219 88.605469 80.117188 C 88.597656 80.140625 88.578125 80.160156 88.5625 80.179688 Z M 85.316406 73.109375 C 85.292969 73.121094 85.273438 73.128906 85.25 73.140625 C 85.191406 73.957031 85.210938 74.765625 85.34375 75.578125 C 85.441406 76.132812 85.558594 76.683594 85.898438 77.152344 C 86.085938 77.40625 86.25 77.511719 86.414062 77.507812 C 86.332031 77.210938 86.195312 76.90625 86.167969 76.597656 C 86.136719 76.125 86.1875 75.648438 86.1875 75.175781 C 86.1875 74.863281 86.238281 74.507812 86.109375 74.246094 C 85.917969 73.835938 85.589844 73.488281 85.316406 73.109375 Z M 85.316406 73.109375 " fill-opacity="1" fill-rule="nonzero"/><path fill="#ffffff" d="M 103.609375 74.617188 C 103.472656 78.28125 101.183594 81.050781 97.386719 81.875 C 97.492188 81.539062 97.664062 81.277344 97.972656 81.140625 C 98.960938 80.722656 99.847656 80.15625 100.585938 79.371094 C 101.488281 78.417969 102.078125 77.3125 102.289062 76.011719 C 102.316406 75.824219 102.378906 75.6875 102.535156 75.558594 C 102.929688 75.246094 103.289062 74.90625 103.609375 74.617188 Z M 99.425781 80.71875 C 100.976562 80.402344 102.5625 78.609375 102.566406 77.167969 C 102.054688 77.8125 101.585938 78.460938 101.058594 79.058594 C 100.527344 79.652344 99.949219 80.199219 99.425781 80.71875 Z M 99.425781 80.71875 " fill-opacity="1" fill-rule="nonzero"/><path fill="#ffffff" d="M 83.238281 74.523438 C 83.636719 74.90625 84.035156 75.285156 84.425781 75.675781 C 84.488281 75.738281 84.519531 75.839844 84.535156 75.925781 C 84.804688 77.65625 85.675781 79.042969 87.058594 80.089844 C 87.601562 80.5 88.230469 80.804688 88.835938 81.128906 C 89.152344 81.300781 89.335938 81.539062 89.460938 81.871094 C 85.914062 81.164062 83.355469 78.449219 83.238281 74.523438 Z M 84.261719 77.175781 C 84.453125 78.691406 86.332031 80.738281 87.496094 80.71875 C 86.21875 79.726562 85.410156 78.332031 84.261719 77.175781 Z M 84.261719 77.175781 " fill-opacity="1" fill-rule="nonzero"/><path fill="#ffffff" d="M 93.5 78.5625 C 93.660156 79.097656 93.851562 79.625 93.972656 80.164062 C 94.164062 81.011719 94.25 81.871094 94.085938 82.738281 C 94.046875 82.941406 93.976562 83.140625 93.886719 83.316406 C 93.675781 83.710938 93.203125 83.730469 93.003906 83.339844 C 92.859375 83.058594 92.753906 82.734375 92.722656 82.421875 C 92.601562 81.148438 92.808594 79.921875 93.3125 78.75 C 93.34375 78.6875 93.378906 78.628906 93.414062 78.570312 C 93.441406 78.570312 93.472656 78.566406 93.5 78.5625 Z M 93.5 78.5625 " fill-opacity="1" fill-rule="nonzero"/><path fill="#ffffff" d="M 107.835938 79.320312 C 106.40625 81.09375 104.664062 82.175781 102.359375 82.390625 C 102.742188 82.132812 103.09375 81.933594 103.398438 81.679688 C 103.859375 81.304688 104.277344 80.882812 104.726562 80.488281 C 105.566406 79.746094 106.496094 79.199219 107.679688 79.300781 C 107.707031 79.304688 107.734375 79.3125 107.835938 79.320312 Z M 103.996094 81.539062 C 104.882812 81.625 106.652344 80.457031 106.617188 79.824219 C 106.15625 79.972656 105.683594 80.117188 105.210938 80.269531 C 105.164062 80.285156 105.117188 80.316406 105.082031 80.355469 C 104.714844 80.75 104.355469 81.140625 103.996094 81.539062 Z M 103.996094 81.539062 " fill-opacity="1" fill-rule="nonzero"/><path fill="#ffffff" d="M 84.402344 82.296875 C 82.46875 82.351562 80.113281 80.9375 79.125 79.277344 C 79.742188 79.226562 80.308594 79.359375 80.851562 79.605469 C 81.410156 79.855469 81.867188 80.25 82.308594 80.664062 C 82.941406 81.261719 83.527344 81.917969 84.402344 82.296875 Z M 82.96875 81.476562 C 82.90625 81.433594 82.835938 81.394531 82.777344 81.34375 C 82.554688 81.140625 82.277344 80.96875 82.121094 80.726562 C 81.875 80.339844 81.519531 80.199219 81.105469 80.097656 C 80.820312 80.027344 80.546875 79.894531 80.265625 79.78125 C 80.300781 80.484375 82.070312 81.636719 82.96875 81.476562 Z M 82.96875 81.476562 " fill-opacity="1" fill-rule="nonzero"/><path fill="#ffffff" d="M 94.84375 83.65625 C 94.949219 83.539062 94.996094 83.449219 95.074219 83.40625 C 95.566406 83.140625 96.050781 82.847656 96.652344 82.921875 C 97.632812 83.042969 98.613281 83.179688 99.554688 83.492188 C 100.015625 83.644531 100.457031 83.828125 100.847656 84.222656 C 98.808594 84.222656 96.820312 84.3125 94.84375 83.65625 Z M 95.246094 83.636719 C 95.253906 83.660156 95.257812 83.6875 95.269531 83.710938 C 96.515625 83.980469 97.777344 83.851562 99.035156 83.863281 C 98.988281 83.804688 98.9375 83.75 98.878906 83.722656 C 97.847656 83.222656 96.769531 83.140625 95.664062 83.40625 C 95.515625 83.4375 95.382812 83.554688 95.246094 83.636719 Z M 95.246094 83.636719 " fill-opacity="1" fill-rule="nonzero"/><path fill="#ffffff" d="M 86.128906 84.175781 C 86.25 84.066406 86.367188 83.9375 86.503906 83.851562 C 87.066406 83.488281 87.699219 83.320312 88.347656 83.207031 C 88.949219 83.097656 89.5625 83.035156 90.160156 82.941406 C 90.480469 82.886719 90.773438 82.941406 91.058594 83.082031 C 91.367188 83.242188 91.679688 83.394531 92.019531 83.566406 C 91.558594 83.859375 91.085938 84 90.601562 84.042969 C 89.746094 84.117188 88.894531 84.152344 88.035156 84.1875 C 87.460938 84.214844 86.890625 84.21875 86.316406 84.230469 C 86.265625 84.230469 86.210938 84.230469 86.160156 84.230469 C 86.152344 84.207031 86.136719 84.195312 86.128906 84.175781 Z M 91.648438 83.679688 C 91.140625 82.953125 88.359375 83.144531 87.78125 83.941406 C 89.070312 83.753906 90.351562 83.960938 91.648438 83.679688 Z M 91.648438 83.679688 " fill-opacity="1" fill-rule="nonzero"/><path fill="#ffffff" d="M 91.660156 72.976562 C 91.324219 72.238281 90.976562 71.519531 90.675781 70.777344 C 90.460938 70.253906 90.5 69.707031 90.691406 69.152344 C 91.039062 69.277344 91.304688 69.492188 91.527344 69.757812 C 92.003906 70.332031 92.289062 71 92.511719 71.695312 C 92.527344 71.742188 92.546875 71.8125 92.523438 71.847656 C 92.273438 72.207031 92.019531 72.558594 91.765625 72.910156 C 91.75 72.945312 91.695312 72.957031 91.660156 72.976562 Z M 91.710938 72.535156 C 92.121094 72.230469 92.261719 71.871094 92.117188 71.414062 C 91.929688 70.820312 91.527344 70.386719 91.042969 69.953125 C 91.054688 70.898438 91.324219 71.726562 91.710938 72.535156 Z M 91.710938 72.535156 " fill-opacity="1" fill-rule="nonzero"/><path fill="#ffffff" d="M 95.214844 72.921875 C 94.917969 72.558594 94.617188 72.207031 94.324219 71.84375 C 94.292969 71.804688 94.285156 71.71875 94.300781 71.667969 C 94.578125 70.835938 94.960938 70.074219 95.589844 69.449219 C 95.703125 69.335938 95.847656 69.242188 95.992188 69.125 C 96.367188 69.6875 96.398438 70.265625 96.15625 70.855469 C 96.035156 71.140625 95.882812 71.410156 95.753906 71.691406 C 95.578125 72.078125 95.410156 72.46875 95.214844 72.921875 Z M 95.15625 72.496094 C 95.632812 71.613281 95.96875 70.492188 95.707031 69.925781 C 95.402344 70.398438 95.085938 70.832031 94.832031 71.300781 C 94.558594 71.800781 94.667969 72.136719 95.15625 72.496094 Z M 95.15625 72.496094 " fill-opacity="1" fill-rule="nonzero"/><path fill="#ffffff" d="M 93.394531 68.222656 C 94.21875 69.070312 94.183594 70.070312 93.980469 71.160156 C 93.632812 70.816406 93.628906 70.386719 93.488281 69.988281 C 93.171875 70.3125 93.191406 70.777344 92.976562 71.136719 C 92.59375 70.65625 92.675781 69.027344 93.394531 68.222656 Z M 93.394531 68.222656 " fill-opacity="1" fill-rule="nonzero"/><path fill="#ffffff" d="M 89.039062 84.964844 C 89.316406 84.679688 89.660156 84.574219 90.019531 84.5 C 90.476562 84.402344 90.9375 84.328125 91.390625 84.222656 C 91.730469 84.140625 92.054688 84.007812 92.285156 83.71875 C 92.316406 83.675781 92.414062 83.65625 92.464844 83.667969 C 92.707031 83.730469 92.953125 83.808594 93.214844 83.890625 C 93.160156 84.292969 92.960938 84.605469 92.601562 84.757812 C 92.316406 84.875 91.996094 84.972656 91.691406 84.980469 C 90.839844 85.007812 89.980469 84.992188 89.125 84.992188 C 89.101562 84.992188 89.082031 84.976562 89.039062 84.964844 Z M 90.648438 84.660156 C 91.234375 84.832031 91.824219 84.929688 92.40625 84.683594 C 92.683594 84.570312 92.902344 84.371094 92.996094 84.03125 C 92.15625 84.109375 91.398438 84.347656 90.648438 84.660156 Z M 90.648438 84.660156 " fill-opacity="1" fill-rule="nonzero"/><g clip-path="url(#dd0bdd07ea)"><path fill="#ffffff" d="M 97.800781 84.929688 C 96.929688 84.964844 96.136719 85.023438 95.34375 85.023438 C 95.007812 85.023438 94.648438 84.941406 94.328125 84.824219 C 93.914062 84.671875 93.703125 84.308594 93.609375 83.859375 C 93.890625 83.796875 94.167969 83.738281 94.445312 83.679688 C 94.476562 83.675781 94.53125 83.683594 94.550781 83.703125 C 94.988281 84.246094 95.636719 84.304688 96.25 84.4375 C 96.660156 84.523438 97.066406 84.628906 97.472656 84.738281 C 97.574219 84.761719 97.660156 84.84375 97.800781 84.929688 Z M 93.832031 84.109375 C 94.28125 84.824219 95.375 84.992188 96.242188 84.648438 C 95.699219 84.460938 95.179688 84.261719 94.640625 84.117188 C 94.402344 84.054688 94.128906 84.109375 93.832031 84.109375 Z M 93.832031 84.109375 " fill-opacity="1" fill-rule="nonzero"/></g><g clip-path="url(#0b1a265627)"><path fill="#666666" d="M 80.617188 78.535156 C 80.421875 77.671875 80.226562 76.820312 80.035156 75.976562 C 80.0625 75.964844 80.089844 75.945312 80.113281 75.929688 C 80.984375 76.710938 82.199219 76.773438 83.160156 77.414062 C 82.589844 75.683594 82.386719 73.925781 82.664062 72.070312 C 83.132812 72.914062 83.5625 73.730469 84.425781 74.289062 C 84.519531 72.84375 84.613281 71.441406 84.707031 70.050781 C 85.429688 70.769531 86.441406 71.238281 87.015625 72.21875 C 87.6875 71.09375 88.449219 70.042969 88.335938 68.589844 C 88.882812 69.066406 89.371094 69.492188 89.875 69.929688 C 90.054688 69.242188 90.414062 68.601562 90.007812 67.835938 C 90.980469 68.179688 91.539062 68.910156 92.09375 69.605469 C 92.359375 69.167969 92.636719 68.742188 92.882812 68.300781 C 93.042969 68.007812 93.148438 67.695312 93.285156 67.394531 C 93.320312 67.328125 93.394531 67.277344 93.453125 67.222656 C 93.503906 67.285156 93.601562 67.335938 93.605469 67.402344 C 93.667969 67.867188 93.875 68.25 94.15625 68.617188 C 94.386719 68.917969 94.550781 69.277344 94.734375 69.605469 C 95.164062 68.976562 95.789062 68.464844 96.402344 67.941406 C 96.472656 67.882812 96.539062 67.816406 96.613281 67.789062 C 96.667969 67.769531 96.761719 67.789062 96.804688 67.828125 C 96.832031 67.855469 96.824219 67.964844 96.789062 68.003906 C 96.566406 68.261719 96.570312 68.546875 96.660156 68.851562 C 96.765625 69.195312 96.855469 69.546875 96.957031 69.910156 C 97.492188 69.511719 97.921875 68.941406 98.578125 68.632812 C 98.578125 68.722656 98.582031 68.789062 98.578125 68.851562 C 98.488281 69.632812 98.683594 70.339844 99.113281 71 C 99.375 71.398438 99.617188 71.820312 99.867188 72.222656 C 100.113281 71.753906 100.5 71.355469 100.953125 71.011719 C 101.390625 70.679688 101.820312 70.339844 102.230469 70.027344 C 102.078125 71.398438 102.414062 72.792969 102.488281 74.25 C 103.320312 73.6875 103.761719 72.871094 104.238281 72 C 104.429688 73.855469 104.253906 75.605469 103.742188 77.359375 C 104.773438 76.898438 105.835938 76.613281 106.773438 75.957031 C 106.695312 76.382812 106.632812 76.8125 106.539062 77.238281 C 106.441406 77.652344 106.320312 78.0625 106.199219 78.503906 C 106.914062 78.265625 107.644531 78.355469 108.371094 78.328125 C 108.746094 78.3125 109.089844 78.21875 109.417969 77.976562 C 109.242188 78.363281 109.089844 78.757812 108.890625 79.132812 C 108.207031 80.4375 107.25 81.480469 105.941406 82.175781 C 105.023438 82.667969 104.035156 82.96875 103 83.058594 C 102.242188 83.121094 101.476562 83.113281 100.71875 83.128906 C 100.597656 83.136719 100.46875 83.128906 100.296875 83.128906 C 101.078125 83.71875 101.84375 84.28125 102.253906 85.253906 C 101.011719 84.558594 99.746094 84.742188 98.453125 84.847656 C 98.589844 85.09375 98.730469 85.304688 98.820312 85.539062 C 98.875 85.667969 98.851562 85.828125 98.859375 85.976562 C 98.742188 85.910156 98.613281 85.863281 98.507812 85.777344 C 98.136719 85.46875 97.710938 85.351562 97.238281 85.433594 C 96.890625 85.496094 96.539062 85.566406 96.195312 85.664062 C 95.125 85.957031 94.257812 85.652344 93.566406 84.804688 C 93.527344 84.757812 93.480469 84.710938 93.4375 84.667969 C 93.433594 84.660156 93.421875 84.660156 93.417969 84.660156 C 93.21875 84.851562 93.027344 85.046875 92.824219 85.230469 C 92.285156 85.71875 91.652344 85.878906 90.945312 85.726562 C 90.632812 85.660156 90.324219 85.585938 90.019531 85.511719 C 89.226562 85.308594 88.542969 85.5 87.976562 86.09375 C 87.90625 85.824219 87.957031 85.667969 88.398438 84.875 C 87.128906 84.722656 85.882812 84.566406 84.664062 85.195312 C 85.101562 84.148438 85.917969 83.527344 86.871094 83.042969 C 86.867188 83.019531 86.863281 83.003906 86.855469 82.976562 C 86.722656 82.972656 86.585938 82.945312 86.457031 82.964844 C 85.992188 83.03125 85.535156 83.136719 85.066406 83.179688 C 83.257812 83.34375 81.628906 82.847656 80.195312 81.742188 C 78.949219 80.785156 78.085938 79.519531 77.429688 78.109375 C 77.414062 78.074219 77.410156 78.039062 77.386719 77.957031 C 77.867188 78.320312 78.371094 78.382812 78.90625 78.367188 C 79.484375 78.351562 80.070312 78.320312 80.617188 78.535156 Z M 95.460938 82.882812 C 95.46875 82.898438 95.484375 82.910156 95.492188 82.925781 C 95.773438 82.675781 96.085938 82.453125 96.328125 82.171875 C 97.234375 81.136719 97.445312 79.90625 97.261719 78.582031 C 97.078125 77.246094 96.464844 76.105469 95.625 75.066406 C 94.855469 74.113281 94.105469 73.144531 93.34375 72.175781 C 93.378906 72.152344 93.363281 72.15625 93.355469 72.171875 C 92.535156 73.308594 91.707031 74.4375 90.902344 75.585938 C 90.136719 76.671875 89.632812 77.875 89.527344 79.214844 C 89.441406 80.355469 89.699219 81.394531 90.519531 82.238281 C 90.78125 82.507812 91.085938 82.71875 91.507812 82.878906 C 91.324219 82.667969 91.191406 82.515625 91.0625 82.351562 C 90.3125 81.417969 90.066406 80.371094 90.566406 79.261719 C 90.929688 78.457031 91.398438 77.695312 91.855469 76.9375 C 92.597656 75.699219 93.3125 74.460938 93.34375 73.011719 C 93.464844 73.476562 93.566406 74 93.738281 74.5 C 94.0625 75.453125 94.621094 76.289062 95.144531 77.136719 C 95.515625 77.742188 95.894531 78.351562 96.199219 78.992188 C 96.636719 79.902344 96.671875 80.851562 96.183594 81.765625 C 95.96875 82.152344 95.703125 82.511719 95.460938 82.882812 Z M 94.359375 83.300781 C 94.824219 82.949219 95.210938 82.523438 95.511719 82.023438 C 95.976562 81.25 96.0625 80.429688 95.761719 79.578125 C 95.53125 78.933594 95.148438 78.382812 94.769531 77.828125 C 94.300781 77.15625 93.730469 76.539062 93.570312 75.691406 C 93.5625 75.640625 93.480469 75.597656 93.4375 75.546875 C 93.390625 75.605469 93.332031 75.65625 93.300781 75.722656 C 93.097656 76.132812 92.9375 76.570312 92.703125 76.960938 C 92.304688 77.628906 91.84375 78.257812 91.445312 78.917969 C 91.152344 79.398438 90.953125 79.921875 90.90625 80.484375 C 90.785156 81.828125 91.5625 82.660156 92.59375 83.394531 C 92.574219 83.316406 92.574219 83.285156 92.558594 83.257812 C 92.117188 82.414062 92.09375 81.527344 92.277344 80.617188 C 92.515625 79.476562 92.953125 78.40625 93.394531 77.335938 C 93.398438 77.328125 93.417969 77.332031 93.441406 77.320312 C 93.472656 77.375 93.503906 77.425781 93.523438 77.484375 C 93.832031 78.367188 94.183594 79.238281 94.445312 80.132812 C 94.746094 81.179688 94.878906 82.25 94.359375 83.300781 Z M 88.417969 78.90625 C 88.433594 78.894531 88.460938 78.890625 88.476562 78.882812 C 88.476562 78.808594 88.472656 78.738281 88.476562 78.667969 C 88.515625 77.707031 88.742188 76.800781 89.195312 75.953125 C 89.574219 75.238281 90.109375 74.648438 90.710938 74.109375 C 90.996094 73.851562 91.25 73.539062 91.082031 73.128906 C 90.894531 72.675781 90.691406 72.222656 90.414062 71.824219 C 90.050781 71.304688 89.609375 70.839844 89.203125 70.355469 C 89.152344 70.292969 89.09375 70.234375 89.066406 70.207031 C 88.84375 70.679688 88.648438 71.152344 88.410156 71.59375 C 87.804688 72.738281 87.394531 73.941406 87.363281 75.242188 C 87.347656 75.78125 87.363281 76.320312 87.363281 76.859375 C 87.371094 76.859375 87.339844 76.859375 87.308594 76.859375 C 87.273438 76.859375 87.238281 76.859375 87.175781 76.859375 C 87.496094 77.628906 87.851562 78.328125 88.417969 78.90625 Z M 97.71875 70.191406 C 97.101562 71.078125 96.335938 71.886719 95.878906 72.90625 C 95.617188 73.492188 95.613281 73.632812 96.105469 74.054688 C 97.273438 75.066406 97.976562 76.332031 98.253906 77.84375 C 98.320312 78.214844 98.375 78.589844 98.441406 79.003906 C 98.914062 78.304688 99.398438 77.664062 99.628906 76.851562 C 99.53125 76.851562 99.464844 76.851562 99.378906 76.851562 C 99.394531 76.679688 99.410156 76.519531 99.417969 76.363281 C 99.511719 75.042969 99.445312 73.734375 98.898438 72.511719 C 98.546875 71.726562 98.117188 70.980469 97.71875 70.191406 Z M 105.390625 77.589844 C 104.320312 77.929688 103.363281 78.347656 102.585938 79.097656 C 102.054688 79.605469 101.539062 80.132812 100.996094 80.628906 C 100.449219 81.128906 99.851562 81.570312 99.175781 81.894531 C 98.640625 82.152344 98.074219 82.242188 97.496094 82.304688 C 97.1875 82.339844 96.898438 82.433594 96.660156 82.691406 C 96.769531 82.707031 96.847656 82.714844 96.925781 82.71875 C 98.277344 82.804688 99.617188 82.714844 100.921875 82.308594 C 102.972656 81.671875 104.457031 80.421875 105.175781 78.347656 C 105.25 78.113281 105.308594 77.871094 105.390625 77.589844 Z M 90.148438 82.691406 C 89.824219 82.445312 89.5 82.359375 89.160156 82.308594 C 88.175781 82.171875 87.253906 81.875 86.488281 81.21875 C 85.980469 80.78125 85.503906 80.304688 85.019531 79.832031 C 84.363281 79.183594 83.699219 78.542969 82.871094 78.125 C 82.449219 77.914062 82 77.769531 81.507812 77.578125 C 81.773438 78.90625 82.324219 79.976562 83.257812 80.835938 C 83.863281 81.398438 84.574219 81.800781 85.34375 82.082031 C 86.875 82.640625 88.464844 82.773438 90.148438 82.691406 Z M 101.574219 71.527344 C 101.082031 71.851562 100.65625 72.207031 100.367188 72.691406 C 100.234375 72.910156 100.199219 73.117188 100.28125 73.382812 C 100.648438 74.574219 100.695312 75.785156 100.390625 77.003906 C 100.136719 78.003906 99.738281 78.917969 98.816406 79.519531 C 98.539062 79.703125 98.351562 79.96875 98.214844 80.316406 C 98.289062 80.296875 98.324219 80.289062 98.359375 80.273438 C 99.332031 79.953125 100.019531 79.273438 100.585938 78.464844 C 101.429688 77.265625 101.808594 75.902344 101.875 74.441406 C 101.90625 73.46875 101.808594 72.511719 101.574219 71.527344 Z M 88.5625 80.179688 C 88.578125 80.160156 88.59375 80.140625 88.605469 80.121094 C 88.425781 79.953125 88.238281 79.792969 88.0625 79.621094 C 87.753906 79.3125 87.367188 79.035156 87.15625 78.664062 C 86.207031 76.988281 85.984375 75.214844 86.570312 73.363281 C 86.628906 73.183594 86.628906 73.023438 86.546875 72.863281 C 86.261719 72.304688 85.800781 71.917969 85.277344 71.582031 C 85.253906 71.632812 85.234375 71.65625 85.230469 71.691406 C 84.800781 73.6875 84.84375 75.648438 85.710938 77.535156 C 86.136719 78.457031 86.722656 79.257812 87.582031 79.832031 C 87.878906 80.027344 88.203125 80.175781 88.5625 80.179688 Z M 103.609375 74.617188 C 103.289062 74.90625 102.929688 75.246094 102.542969 75.558594 C 102.382812 75.6875 102.324219 75.824219 102.292969 76.011719 C 102.082031 77.3125 101.492188 78.421875 100.589844 79.371094 C 99.847656 80.15625 98.964844 80.722656 97.976562 81.140625 C 97.667969 81.277344 97.496094 81.539062 97.390625 81.875 C 101.183594 81.050781 103.472656 78.28125 103.609375 74.617188 Z M 83.238281 74.523438 C 83.355469 78.449219 85.914062 81.164062 89.460938 81.871094 C 89.332031 81.539062 89.144531 81.292969 88.835938 81.128906 C 88.230469 80.804688 87.605469 80.5 87.058594 80.089844 C 85.675781 79.042969 84.804688 77.660156 84.535156 75.925781 C 84.519531 75.839844 84.480469 75.734375 84.425781 75.675781 C 84.039062 75.285156 83.636719 74.910156 83.238281 74.523438 Z M 93.5 78.5625 C 93.472656 78.566406 93.449219 78.566406 93.417969 78.570312 C 93.386719 78.628906 93.347656 78.6875 93.320312 78.75 C 92.8125 79.921875 92.601562 81.148438 92.726562 82.421875 C 92.753906 82.734375 92.859375 83.058594 93.007812 83.339844 C 93.207031 83.730469 93.679688 83.710938 93.890625 83.316406 C 93.984375 83.136719 94.058594 82.933594 94.089844 82.738281 C 94.253906 81.875 94.167969 81.011719 93.976562 80.164062 C 93.847656 79.625 93.65625 79.097656 93.5 78.5625 Z M 107.835938 79.320312 C 107.734375 79.3125 107.707031 79.304688 107.671875 79.300781 C 106.492188 79.199219 105.566406 79.746094 104.722656 80.488281 C 104.277344 80.882812 103.851562 81.304688 103.394531 81.679688 C 103.089844 81.933594 102.738281 82.132812 102.355469 82.390625 C 104.660156 82.183594 106.40625 81.09375 107.835938 79.320312 Z M 84.402344 82.296875 C 83.527344 81.925781 82.941406 81.261719 82.308594 80.664062 C 81.867188 80.253906 81.414062 79.855469 80.851562 79.605469 C 80.304688 79.363281 79.742188 79.226562 79.125 79.277344 C 80.117188 80.933594 82.46875 82.347656 84.402344 82.296875 Z M 94.84375 83.65625 C 96.820312 84.3125 98.8125 84.21875 100.851562 84.226562 C 100.457031 83.828125 100.015625 83.644531 99.5625 83.496094 C 98.617188 83.183594 97.640625 83.050781 96.65625 82.925781 C 96.054688 82.847656 95.570312 83.140625 95.078125 83.410156 C 94.992188 83.449219 94.945312 83.539062 94.84375 83.65625 Z M 86.128906 84.175781 C 86.136719 84.195312 86.152344 84.207031 86.160156 84.226562 C 86.210938 84.226562 86.265625 84.226562 86.316406 84.226562 C 86.890625 84.214844 87.460938 84.214844 88.035156 84.183594 C 88.886719 84.148438 89.746094 84.113281 90.601562 84.035156 C 91.085938 83.992188 91.558594 83.855469 92.019531 83.558594 C 91.679688 83.386719 91.367188 83.234375 91.058594 83.078125 C 90.773438 82.929688 90.480469 82.882812 90.160156 82.933594 C 89.5625 83.03125 88.949219 83.09375 88.347656 83.203125 C 87.699219 83.316406 87.066406 83.484375 86.503906 83.847656 C 86.367188 83.9375 86.25 84.066406 86.128906 84.175781 Z M 91.660156 72.976562 C 91.691406 72.957031 91.75 72.949219 91.773438 72.914062 C 92.03125 72.5625 92.285156 72.210938 92.53125 71.851562 C 92.554688 71.820312 92.542969 71.746094 92.523438 71.699219 C 92.292969 71.003906 92.007812 70.332031 91.535156 69.761719 C 91.3125 69.496094 91.046875 69.277344 90.699219 69.15625 C 90.507812 69.710938 90.472656 70.257812 90.6875 70.785156 C 90.980469 71.511719 91.328125 72.234375 91.660156 72.976562 Z M 95.214844 72.921875 C 95.410156 72.46875 95.578125 72.078125 95.753906 71.691406 C 95.882812 71.410156 96.035156 71.140625 96.15625 70.855469 C 96.402344 70.265625 96.367188 69.6875 95.992188 69.125 C 95.847656 69.242188 95.703125 69.335938 95.589844 69.449219 C 94.964844 70.074219 94.578125 70.839844 94.300781 71.667969 C 94.28125 71.71875 94.292969 71.800781 94.324219 71.84375 C 94.617188 72.207031 94.910156 72.558594 95.214844 72.921875 Z M 93.394531 68.222656 C 92.675781 69.023438 92.597656 70.65625 92.96875 71.136719 C 93.183594 70.777344 93.164062 70.3125 93.484375 69.988281 C 93.625 70.386719 93.632812 70.8125 93.976562 71.160156 C 94.183594 70.070312 94.21875 69.070312 93.394531 68.222656 Z M 89.039062 84.964844 C 89.082031 84.980469 89.101562 84.992188 89.121094 84.992188 C 89.980469 84.992188 90.832031 85.007812 91.6875 84.980469 C 91.992188 84.972656 92.3125 84.875 92.597656 84.757812 C 92.960938 84.605469 93.15625 84.292969 93.207031 83.890625 C 92.945312 83.808594 92.703125 83.730469 92.460938 83.667969 C 92.402344 83.65625 92.3125 83.679688 92.277344 83.71875 C 92.046875 84.003906 91.726562 84.140625 91.386719 84.222656 C 90.933594 84.332031 90.472656 84.410156 90.011719 84.5 C 89.664062 84.570312 89.320312 84.679688 89.039062 84.964844 Z M 97.800781 84.929688 C 97.660156 84.84375 97.574219 84.761719 97.472656 84.734375 C 97.066406 84.625 96.660156 84.523438 96.25 84.433594 C 95.636719 84.300781 94.988281 84.246094 94.550781 83.699219 C 94.53125 83.675781 94.476562 83.664062 94.445312 83.675781 C 94.167969 83.730469 93.890625 83.792969 93.609375 83.855469 C 93.703125 84.308594 93.914062 84.667969 94.328125 84.820312 C 94.648438 84.9375 95.007812 85.019531 95.34375 85.019531 C 96.136719 85.023438 96.929688 84.964844 97.800781 84.929688 Z M 97.800781 84.929688 " fill-opacity="1" fill-rule="nonzero"/></g><path fill="#666666" d="M 88.714844 71.980469 C 88.816406 72.414062 88.921875 72.855469 89.027344 73.3125 C 89.117188 73.273438 89.183594 73.246094 89.269531 73.210938 C 89.460938 73.664062 89.644531 74.117188 89.84375 74.578125 C 89.066406 75.265625 88.691406 76.171875 88.453125 77.15625 C 88.429688 77.160156 88.40625 77.164062 88.382812 77.167969 C 88.296875 76.945312 88.183594 76.730469 88.128906 76.496094 C 87.9375 75.683594 87.992188 74.855469 88.039062 74.023438 C 88.117188 74.03125 88.183594 74.042969 88.226562 74.050781 C 88.359375 73.355469 88.488281 72.664062 88.621094 71.972656 C 88.65625 71.976562 88.6875 71.976562 88.714844 71.980469 Z M 88.714844 71.980469 " fill-opacity="1" fill-rule="nonzero"/><path fill="#666666" d="M 97.0625 74.660156 C 97.257812 74.167969 97.449219 73.6875 97.648438 73.1875 C 97.734375 73.246094 97.796875 73.289062 97.90625 73.359375 C 97.996094 72.910156 98.082031 72.476562 98.167969 72.046875 C 98.191406 72.042969 98.222656 72.042969 98.246094 72.039062 C 98.355469 72.5 98.46875 72.964844 98.574219 73.429688 C 98.605469 73.578125 98.605469 73.730469 98.632812 73.878906 C 98.644531 73.96875 98.613281 74.101562 98.785156 74.09375 C 98.804688 74.09375 98.851562 74.160156 98.851562 74.195312 C 98.882812 75.046875 98.972656 75.910156 98.722656 76.75 C 98.675781 76.902344 98.589844 77.039062 98.492188 77.183594 C 98.195312 76.226562 97.941406 75.273438 97.0625 74.660156 Z M 97.0625 74.660156 " fill-opacity="1" fill-rule="nonzero"/><path fill="#666666" d="M 99.683594 81.773438 C 101.019531 80.898438 102.355469 80.027344 103.710938 79.140625 C 103.644531 80.46875 101.183594 82.121094 99.726562 81.84375 C 99.707031 81.820312 99.695312 81.796875 99.683594 81.773438 Z M 99.683594 81.773438 " fill-opacity="1" fill-rule="nonzero"/><path fill="#666666" d="M 83.132812 79.035156 C 83.746094 79.574219 84.46875 79.882812 85.152344 80.253906 C 85.554688 80.46875 85.871094 80.847656 86.226562 81.148438 C 86.511719 81.386719 86.804688 81.609375 87.070312 81.824219 C 85.839844 82.253906 83.484375 80.628906 83.132812 79.035156 Z M 83.132812 79.035156 " fill-opacity="1" fill-rule="nonzero"/><path fill="#666666" d="M 100.4375 77.628906 C 100.554688 77.160156 100.710938 76.722656 100.757812 76.273438 C 100.808594 75.765625 100.75 75.246094 100.753906 74.734375 C 100.753906 74.585938 100.777344 74.417969 100.847656 74.289062 C 101.09375 73.855469 101.359375 73.433594 101.660156 72.945312 C 101.660156 73.410156 101.667969 73.832031 101.660156 74.25 C 101.628906 75.144531 101.558594 76.023438 101.140625 76.839844 C 100.972656 77.15625 100.757812 77.4375 100.4375 77.628906 Z M 100.4375 77.628906 " fill-opacity="1" fill-rule="nonzero"/><path fill="#666666" d="M 85.316406 73.109375 C 85.589844 73.488281 85.917969 73.835938 86.113281 74.246094 C 86.242188 74.507812 86.1875 74.863281 86.195312 75.175781 C 86.199219 75.652344 86.140625 76.128906 86.175781 76.597656 C 86.199219 76.910156 86.332031 77.21875 86.417969 77.507812 C 86.253906 77.511719 86.085938 77.402344 85.902344 77.152344 C 85.5625 76.679688 85.445312 76.128906 85.351562 75.578125 C 85.210938 74.765625 85.195312 73.957031 85.253906 73.140625 C 85.273438 73.136719 85.292969 73.121094 85.316406 73.109375 Z M 85.316406 73.109375 " fill-opacity="1" fill-rule="nonzero"/><path fill="#666666" d="M 99.425781 80.71875 C 99.949219 80.191406 100.527344 79.652344 101.054688 79.058594 C 101.582031 78.460938 102.054688 77.8125 102.5625 77.167969 C 102.5625 78.609375 100.976562 80.402344 99.425781 80.71875 Z M 99.425781 80.71875 " fill-opacity="1" fill-rule="nonzero"/><path fill="#666666" d="M 84.261719 77.175781 C 85.417969 78.332031 86.21875 79.726562 87.496094 80.71875 C 86.332031 80.742188 84.453125 78.695312 84.261719 77.175781 Z M 84.261719 77.175781 " fill-opacity="1" fill-rule="nonzero"/><path fill="#666666" d="M 103.996094 81.539062 C 104.359375 81.140625 104.714844 80.75 105.082031 80.355469 C 105.117188 80.316406 105.164062 80.285156 105.210938 80.269531 C 105.683594 80.117188 106.15625 79.96875 106.617188 79.824219 C 106.648438 80.457031 104.882812 81.625 103.996094 81.539062 Z M 103.996094 81.539062 " fill-opacity="1" fill-rule="nonzero"/><path fill="#666666" d="M 82.96875 81.476562 C 82.070312 81.636719 80.300781 80.488281 80.265625 79.78125 C 80.546875 79.894531 80.820312 80.03125 81.105469 80.097656 C 81.519531 80.199219 81.867188 80.339844 82.121094 80.726562 C 82.277344 80.96875 82.550781 81.140625 82.777344 81.34375 C 82.832031 81.394531 82.902344 81.433594 82.96875 81.476562 Z M 82.96875 81.476562 " fill-opacity="1" fill-rule="nonzero"/><path fill="#666666" d="M 95.246094 83.636719 C 95.382812 83.554688 95.515625 83.441406 95.664062 83.402344 C 96.769531 83.136719 97.847656 83.222656 98.878906 83.71875 C 98.941406 83.746094 98.988281 83.796875 99.035156 83.859375 C 97.777344 83.847656 96.515625 83.976562 95.269531 83.707031 C 95.257812 83.683594 95.253906 83.660156 95.246094 83.636719 Z M 95.246094 83.636719 " fill-opacity="1" fill-rule="nonzero"/><path fill="#666666" d="M 91.648438 83.679688 C 90.351562 83.960938 89.070312 83.753906 87.78125 83.941406 C 88.359375 83.140625 91.140625 82.949219 91.648438 83.679688 Z M 91.648438 83.679688 " fill-opacity="1" fill-rule="nonzero"/><path fill="#666666" d="M 91.710938 72.535156 C 91.324219 71.726562 91.054688 70.898438 91.042969 69.949219 C 91.527344 70.382812 91.929688 70.816406 92.117188 71.410156 C 92.261719 71.871094 92.125 72.230469 91.710938 72.535156 Z M 91.710938 72.535156 " fill-opacity="1" fill-rule="nonzero"/><path fill="#666666" d="M 95.15625 72.496094 C 94.667969 72.136719 94.558594 71.796875 94.832031 71.300781 C 95.085938 70.832031 95.402344 70.398438 95.707031 69.925781 C 95.96875 70.492188 95.632812 71.617188 95.15625 72.496094 Z M 95.15625 72.496094 " fill-opacity="1" fill-rule="nonzero"/><path fill="#666666" d="M 90.648438 84.660156 C 91.390625 84.347656 92.15625 84.109375 92.996094 84.03125 C 92.898438 84.367188 92.683594 84.570312 92.40625 84.683594 C 91.824219 84.925781 91.234375 84.832031 90.648438 84.660156 Z M 90.648438 84.660156 " fill-opacity="1" fill-rule="nonzero"/><path fill="#666666" d="M 93.832031 84.109375 C 94.128906 84.109375 94.402344 84.054688 94.640625 84.117188 C 95.171875 84.261719 95.695312 84.460938 96.242188 84.648438 C 95.375 84.992188 94.277344 84.824219 93.832031 84.109375 Z M 93.832031 84.109375 " fill-opacity="1" fill-rule="nonzero"/><path fill="#666666" d="M 93.429688 68.59375 C 93.429688 68.59375 93.089844 69.261719 93.472656 69.886719 C 93.472656 69.886719 93.828125 69.144531 93.429688 68.59375 Z M 93.429688 68.59375 " fill-opacity="1" fill-rule="nonzero"/><path fill="#666666" d="M 93.367188 79.582031 C 93.367188 79.582031 92.6875 81.613281 93.390625 83.464844 C 93.390625 83.464844 94.085938 82.582031 93.367188 79.582031 Z M 93.367188 79.582031 " fill-opacity="1" fill-rule="nonzero"/></svg>